<svg width="200" height="58" viewBox="0 0 200 58" fill="none" xmlns="http://www.w3.org/2000/svg">
<path d="M47.0386 20.3482H60.5179V12.5944H47.0386V8.85624H62.3851V0.74472H36.4697V32.6579H62.9759V24.5463H47.0386V20.3482Z" fill="black"/>
<path d="M97.9431 27.0068L91.1524 20.9396C89.1758 23.4293 86.8563 24.6778 84.1794 24.6778C81.9329 24.6778 80.124 23.955 78.76 22.5093C77.3961 21.0637 76.7104 19.1289 76.7104 16.6976C76.7104 14.2664 77.3961 12.3316 78.76 10.886C80.124 9.44034 81.9329 8.71753 84.1794 8.71753C86.849 8.71753 89.1758 9.96601 91.1524 12.4557L97.9431 6.38847C96.3603 4.32226 94.3618 2.73792 91.9329 1.64275C89.504 0.547583 86.7396 0 83.6397 0C80.2699 0 77.2283 0.708203 74.5295 2.11732C71.8235 3.53373 69.7082 5.50505 68.1765 8.04584C66.6448 10.5866 65.8789 13.4633 65.8789 16.6903C65.8789 19.9174 66.6448 22.7941 68.1765 25.3349C69.7082 27.8756 71.8308 29.8469 74.5295 31.2634C77.2356 32.6798 80.2699 33.3807 83.6397 33.3807C86.7396 33.3807 89.504 32.8331 91.9329 31.7379C94.3618 30.6428 96.3676 29.0657 97.9431 26.9922V27.0068Z" fill="black"/>
<path d="M125.93 2.15382C123.195 0.722804 120.117 0.0072937 116.681 0.0072937C113.246 0.0072937 110.168 0.722804 107.433 2.15382C104.697 3.58484 102.56 5.56344 101.007 8.10422C99.4604 10.645 98.6799 13.507 98.6799 16.6976C98.6799 19.8882 99.4531 22.7576 101.007 25.291C102.553 27.8318 104.697 29.8104 107.433 31.2414C110.168 32.6725 113.246 33.388 116.681 33.388C120.117 33.388 123.195 32.6725 125.93 31.2414C128.665 29.8104 130.802 27.8318 132.356 25.291C133.902 22.7503 134.683 19.8882 134.683 16.6976C134.683 13.507 133.91 10.6377 132.356 8.10422C130.81 5.56344 128.665 3.58484 125.93 2.15382ZM122.881 20.9177C122.247 22.1223 121.386 23.0423 120.306 23.6994C119.227 24.3565 118.023 24.6778 116.681 24.6778C115.339 24.6778 114.136 24.3492 113.056 23.6994C111.977 23.0496 111.123 22.1223 110.482 20.9177C109.847 19.7203 109.526 18.3112 109.526 16.6976C109.526 15.0841 109.847 13.6823 110.482 12.4776C111.116 11.2802 111.977 10.353 113.056 9.69586C114.136 9.04606 115.339 8.71751 116.681 8.71751C118.023 8.71751 119.227 9.04606 120.306 9.69586C121.386 10.353 122.239 11.2802 122.881 12.4776C123.516 13.6823 123.837 15.0841 123.837 16.6976C123.837 18.3112 123.516 19.713 122.881 20.9177Z" fill="black"/>
<path d="M169.227 32.6579L162.531 22.8087C164.471 21.8084 165.959 20.4504 166.995 18.7493C168.031 17.0481 168.541 15.0549 168.541 12.777C168.541 10.3457 167.95 8.21376 166.762 6.39579C165.58 4.57051 163.895 3.176 161.707 2.19765C159.519 1.2266 156.951 0.737427 154.012 0.737427H138.658V32.6579H149.409V24.634H152.327L157.746 32.6579H169.227ZM156.608 15.5368C155.879 16.1939 154.785 16.5151 153.326 16.5151H149.409V9.03879H153.326C154.785 9.03879 155.879 9.36733 156.608 10.0171C157.338 10.6742 157.702 11.5869 157.702 12.777C157.702 13.967 157.338 14.8797 156.608 15.5368Z" fill="black"/>
<path d="M193.209 31.9569C195.441 31.0005 197.119 29.7082 198.242 28.08C199.365 26.4519 199.927 24.6339 199.927 22.6334C199.927 20.3263 199.314 18.501 198.082 17.1649C196.849 15.8288 195.398 14.865 193.735 14.2663C192.064 13.675 190.015 13.1493 187.586 12.6966C185.704 12.3316 184.355 11.9884 183.53 11.6672C182.713 11.3459 182.298 10.8713 182.298 10.2288C182.298 8.89273 183.676 8.22103 186.441 8.22103C189.205 8.22103 192.196 9.00955 195.325 10.5939L198.556 2.79631C196.944 1.88367 195.084 1.19007 192.976 0.722796C190.868 0.248224 188.716 0.0145874 186.528 0.0145874C183.341 0.0145874 180.627 0.489139 178.395 1.43098C176.163 2.37283 174.486 3.66514 173.363 5.30789C172.239 6.95064 171.678 8.77591 171.678 10.7764C171.678 13.0836 172.283 14.9161 173.501 16.2742C174.712 17.6249 176.142 18.6032 177.783 19.1946C179.424 19.786 181.473 20.3409 183.931 20.8592C185.843 21.2535 187.221 21.6186 188.053 21.9544C188.884 22.2903 189.307 22.794 189.307 23.4584C189.307 24.0352 188.986 24.466 188.352 24.758C187.717 25.0501 186.652 25.1888 185.164 25.1888C183.436 25.1888 181.627 24.926 179.745 24.393C177.863 23.86 176.163 23.1518 174.646 22.2757L171.182 30.1171C172.794 31.1173 174.851 31.9204 177.352 32.5118C179.861 33.1032 182.429 33.4025 185.077 33.4025C188.264 33.4025 190.977 32.9207 193.209 31.9642V31.9569Z" fill="black"/>
<path d="M16.7981 0.74472H0.0292969V12.2148C2.03513 10.1266 5.44871 9.44034 8.22041 11.5285L9.96367 11.1634C11.5829 10.8202 12.998 11.0393 14.2233 12.7916C15.7259 14.9381 19.3145 19.3479 21.3641 16.5589C21.8236 15.7923 22.0935 14.9016 22.0935 13.9378C22.0935 11.1196 19.8105 8.83434 16.995 8.83434V6.40308C22.1591 6.40308 26.3532 10.5939 26.3532 15.7704C26.3532 20.1146 23.3991 23.7651 19.3947 24.8238C20.219 25.6926 21.2474 26.3205 22.4509 26.8097C22.4144 26.817 22.378 26.8316 22.3488 26.8389C20.2481 27.4303 17.4108 26.8316 15.5144 25.6123C13.6398 26.5395 10.8098 28.8394 9.70108 32.6725H16.7981C25.6019 32.6725 32.7427 25.5247 32.7427 16.7122C32.7427 7.89981 25.6019 0.752006 16.7981 0.752006V0.74472Z" fill="black"/>
<path d="M13.3478 15.931C13.3478 15.4418 12.954 15.0403 12.458 15.0403C11.962 15.0403 11.5681 15.4345 11.5681 15.931C11.5681 16.4275 11.962 16.8218 12.458 16.8218C12.954 16.8218 13.3478 16.4275 13.3478 15.931Z" fill="black"/>
<path d="M4.76295 52.5534C4.938 52.4438 5.09117 52.3124 5.21517 52.1299C5.4121 51.8378 5.51422 51.4728 5.51422 51.0274C5.51422 50.6843 5.43398 50.3411 5.27351 49.998C5.11304 49.6621 4.85777 49.3774 4.51496 49.151C4.16485 48.9247 3.7126 48.8152 3.15097 48.8152H0V56.7004H3.48651C4.01896 56.7004 4.46388 56.5982 4.82129 56.3937C5.1714 56.1893 5.44129 55.9119 5.60905 55.5541C5.7841 55.1963 5.87162 54.7802 5.87162 54.3129C5.87162 53.8749 5.74761 53.4806 5.49962 53.1228C5.31727 52.86 5.06928 52.6702 4.75565 52.546L4.76295 52.5534ZM1.50983 50.2097H3.12909C3.41355 50.2097 3.63238 50.29 3.77826 50.4579C3.93143 50.6186 4.00437 50.823 4.00437 51.0639C4.00437 51.261 3.9679 51.4144 3.88766 51.5385C3.80743 51.6626 3.70532 51.7502 3.57403 51.8086C3.44274 51.867 3.29685 51.8963 3.12909 51.8963H1.50983V50.2097ZM4.24506 54.8094C4.15753 54.9627 4.03355 55.0868 3.87308 55.1744C3.71262 55.2621 3.53755 55.3059 3.34062 55.3059H1.51713V53.2908H3.34062C3.56673 53.2908 3.76367 53.3346 3.91685 53.4222C4.07002 53.5098 4.18673 53.6266 4.26696 53.7726C4.3472 53.9186 4.38365 54.0866 4.38365 54.2691C4.38365 54.4808 4.33989 54.6634 4.25236 54.8167L4.24506 54.8094Z" fill="black"/>
<path d="M13.3333 54.072V48.8152H11.8235V56.7004H13.3333L16.7615 51.4436V56.7004H18.2713V48.8152H16.7615L13.3333 54.072Z" fill="black"/>
<path d="M31.0067 48.8152H25.7769C25.7405 49.3409 25.704 49.83 25.6821 50.29C25.6529 50.75 25.6238 51.1881 25.5946 51.6115C25.5654 52.035 25.5362 52.4657 25.4998 52.9038C25.4706 53.247 25.4268 53.5609 25.3612 53.853C25.2955 54.145 25.2153 54.4005 25.1059 54.6196C24.9965 54.8386 24.8652 55.0065 24.6974 55.1233C24.5297 55.2402 24.3327 55.2986 24.092 55.2986V58H25.58V56.6858H30.1168V58H31.6048V55.2986H31.0067V48.8079V48.8152ZM29.5187 55.3059H26.3167C26.4626 55.1087 26.5793 54.9189 26.6522 54.7364C26.7251 54.5539 26.7835 54.3421 26.82 54.0939C26.8564 53.8457 26.8929 53.5317 26.9294 53.1521C26.9658 52.7724 26.995 52.4219 27.0169 52.1153C27.0388 51.8086 27.0607 51.502 27.0753 51.1953C27.0899 50.896 27.1117 50.5602 27.1409 50.2024H29.526V55.3132L29.5187 55.3059Z" fill="black"/>
<path d="M39.1175 54.072V48.8152H37.6077V56.7004H39.1175L42.5384 51.4436V56.7004H44.0482V48.8152H42.5384L39.1175 54.072Z" fill="black"/>
<path d="M54.3545 54.0501L51.7506 48.8152H50.4158V56.7004H51.8016V51.9912L54.0919 56.7004H54.6171L56.9001 51.9912V56.7004H58.2859V48.8152H56.9584L54.3545 54.0501Z" fill="black"/>
<path d="M66.5281 48.8152L64.1211 56.7004H65.6528L66.1488 55.0576H69.1174L69.6207 56.7004H71.1524L68.7455 48.8152H66.5281ZM66.5718 53.6631L67.6222 50.2097L68.6871 53.6631H66.5718Z" fill="black"/>
<path d="M79.3217 48.8225C79.1904 48.8225 79.0737 48.8371 78.9715 48.859C78.5047 48.932 78.1182 49.0853 77.8118 49.3262C77.5128 49.5672 77.2866 49.8592 77.1481 50.2243C77.0095 50.582 76.9365 50.9836 76.9365 51.429C76.9365 52.0861 77.097 52.6556 77.4252 53.1228C77.6295 53.4149 77.9066 53.6266 78.2495 53.7726L76.8198 56.7004H78.5047L79.7958 54.0282H81.4588V56.7004H82.9468V48.8152H79.6207C79.5478 48.8152 79.4384 48.8152 79.3144 48.8225H79.3217ZM81.4661 50.2024V52.6337H79.6936C79.6207 52.6337 79.5332 52.6337 79.4456 52.6264C79.3508 52.6264 79.2706 52.6045 79.1904 52.5826C78.9934 52.5315 78.833 52.4365 78.7236 52.3051C78.6141 52.1737 78.5412 52.0277 78.4974 51.8744C78.4537 51.7137 78.4318 51.5677 78.4318 51.4217C78.4318 51.2756 78.4537 51.1296 78.4974 50.969C78.5412 50.8084 78.6141 50.6697 78.7236 50.5382C78.833 50.4068 78.9861 50.3192 79.1904 50.2608C79.2633 50.2389 79.3508 50.2243 79.4456 50.217C79.5332 50.2097 79.6207 50.2097 79.6936 50.2097H81.4661V50.2024Z" fill="black"/>
<path d="M98.9788 50.385C99.3144 50.1659 99.7301 50.0491 100.226 50.0491C100.773 50.0491 101.218 50.1805 101.568 50.4434C101.918 50.7062 102.159 51.0786 102.305 51.5604L103.8 51.1443C103.545 50.3777 103.115 49.7717 102.502 49.319C101.889 48.8737 101.131 48.6473 100.226 48.6473C99.4384 48.6473 98.76 48.8225 98.1911 49.1584C97.6222 49.4942 97.1845 49.9834 96.8709 50.5967C96.5646 51.21 96.4114 51.9328 96.4114 52.7505C96.4114 53.5683 96.5646 54.2838 96.8709 54.9044C97.1772 55.5177 97.6149 55.9995 98.1911 56.3427C98.76 56.6858 99.4384 56.8538 100.226 56.8538C101.131 56.8538 101.889 56.6274 102.502 56.1821C103.115 55.7367 103.552 55.1234 103.8 54.3568L102.305 53.9406C102.159 54.4152 101.911 54.7875 101.568 55.0504C101.225 55.3205 100.773 55.4519 100.226 55.4519C99.7228 55.4519 99.3071 55.3424 98.9788 55.1161C98.6506 54.8898 98.3953 54.5758 98.2276 54.1743C98.0598 53.7727 97.9796 53.2908 97.9796 52.7432C97.9796 52.1957 98.0598 51.7211 98.2276 51.3122C98.3953 50.9106 98.6433 50.5967 98.9788 50.3704V50.385Z" fill="black"/>
<path d="M111.269 54.072V48.8152H109.759V56.7004H111.269L114.69 51.4436V56.7004H116.2V48.8152H114.69L111.269 54.072Z" fill="black"/>
<path d="M123.611 49.7717C123.589 50.1733 123.56 50.6113 123.516 51.1005C123.479 51.5897 123.428 52.0788 123.363 52.5899C123.304 53.0937 123.231 53.5756 123.144 54.0355C123.085 54.3203 123.027 54.5612 122.969 54.7583C122.91 54.9482 122.837 55.1015 122.75 55.2037C122.67 55.3132 122.568 55.3862 122.451 55.4228C122.334 55.4593 122.196 55.4739 122.028 55.4666V56.7004C122.458 56.7808 122.816 56.7954 123.1 56.7297C123.385 56.6712 123.618 56.5398 123.8 56.35C123.983 56.1602 124.128 55.9119 124.238 55.6126C124.347 55.3132 124.442 54.9628 124.515 54.5758C124.603 54.1743 124.668 53.7581 124.727 53.3346C124.785 52.9112 124.836 52.495 124.872 52.1008C124.909 51.7065 124.945 51.3414 124.967 51.0129C124.989 50.6843 125.011 50.4215 125.026 50.2171H127.542V56.7078H129.03V48.8225H123.662C123.647 49.0635 123.633 49.3774 123.611 49.779V49.7717Z" fill="black"/>
<path d="M137.257 48.8152L134.85 56.7004H136.382L136.878 55.0576H139.847L140.35 56.7004H141.882L139.475 48.8152H137.257ZM137.301 53.6631L138.351 50.2097L139.416 53.6631H137.301Z" fill="black"/>
<path d="M160.649 49.1657C160.08 48.8225 159.402 48.6546 158.614 48.6546C157.826 48.6546 157.148 48.8298 156.579 49.1657C156.01 49.5015 155.572 49.9907 155.259 50.604C154.952 51.2173 154.799 51.9401 154.799 52.7578C154.799 53.5755 154.952 54.291 155.259 54.9116C155.565 55.5249 156.003 56.0068 156.579 56.35C157.148 56.6931 157.826 56.861 158.614 56.861C159.402 56.861 160.08 56.6931 160.649 56.35C161.218 56.0068 161.656 55.5249 161.969 54.9116C162.276 54.2983 162.429 53.5755 162.429 52.7578C162.429 51.9401 162.276 51.2246 161.969 50.604C161.663 49.9907 161.218 49.5088 160.649 49.1657ZM160.605 54.1888C160.438 54.5977 160.19 54.9117 159.861 55.138C159.533 55.3643 159.117 55.4665 158.614 55.4592C158.111 55.4519 157.702 55.3351 157.367 55.1161C157.031 54.8971 156.783 54.5831 156.623 54.1815C156.462 53.78 156.375 53.3054 156.375 52.7578C156.375 52.2102 156.455 51.7357 156.623 51.3268C156.791 50.9179 157.039 50.604 157.367 50.3777C157.695 50.1586 158.111 50.0491 158.614 50.0564C159.11 50.0637 159.526 50.1805 159.861 50.3996C160.197 50.6186 160.445 50.9325 160.605 51.3341C160.766 51.7357 160.853 52.2102 160.853 52.7578C160.853 53.3054 160.773 53.78 160.605 54.1888Z" fill="black"/>
<path d="M174.704 48.8152H172.888L169.89 52.4511V48.8152H168.402V56.7004H169.89V53.1082L173.034 56.7004H174.916L171.415 52.7067L174.704 48.8152Z" fill="black"/>
<path d="M185.646 52.0569H182.123V48.8152H180.635V56.7004H182.123V53.4514H185.646V56.7004H187.134V48.8152H185.646V52.0569Z" fill="black"/>
<path d="M198.468 56.7004H200L197.593 48.8152H195.376L192.969 56.7004H194.501L194.996 55.0576H197.965L198.468 56.7004ZM195.42 53.6704L196.47 50.217L197.535 53.6704H195.42Z" fill="black"/>
</svg>
