<svg width="45" height="44" viewBox="0 0 45 44" fill="none" xmlns="http://www.w3.org/2000/svg">
<path d="M23.03 0.0200195H0.039978V15.73C2.78998 12.87 7.46999 11.93 11.27 14.79L13.66 14.29C15.88 13.82 17.82 14.12 19.5 16.52C21.56 19.46 26.48 25.5 29.29 21.68C29.92 20.63 30.29 19.41 30.29 18.09C30.29 14.23 27.16 11.1 23.3 11.1V7.77002C30.38 7.77002 36.13 13.51 36.13 20.6C36.13 26.55 32.08 31.55 26.59 33C27.72 34.19 29.13 35.05 30.78 35.72C30.73 35.73 30.68 35.75 30.64 35.76C27.76 36.57 23.87 35.75 21.27 34.08C18.7 35.35 14.82 38.5 13.3 43.75H23.03C35.1 43.75 44.89 33.96 44.89 21.89C44.89 9.82001 35.1 0.0299988 23.03 0.0299988V0.0200195Z" fill="black"/>
</svg>
