<svg width="140" height="140" viewBox="0 0 140 140" fill="none" xmlns="http://www.w3.org/2000/svg">
<circle cx="70" cy="70" r="70" fill="#D42E5B"/>
<circle cx="70" cy="70" r="64" stroke="white" stroke-width="2" stroke-dasharray="2 2"/>
<path d="M54.384 67V36.376L47.88 40.288V36.328L54.384 32.44H57.96V67H54.384ZM78.3431 67.72C76.2151 67.72 74.2951 67.224 72.5831 66.232C70.8871 65.24 69.5431 63.896 68.5511 62.2C67.5591 60.488 67.0631 58.568 67.0631 56.44V43C67.0631 40.872 67.5591 38.96 68.5511 37.264C69.5431 35.552 70.8871 34.2 72.5831 33.208C74.2951 32.216 76.2151 31.72 78.3431 31.72C80.4711 31.72 82.3831 32.216 84.0791 33.208C85.7911 34.2 87.1431 35.552 88.1351 37.264C89.1271 38.96 89.6231 40.872 89.6231 43V56.44C89.6231 58.568 89.1271 60.488 88.1351 62.2C87.1431 63.896 85.7911 65.24 84.0791 66.232C82.3831 67.224 80.4711 67.72 78.3431 67.72ZM78.3431 64.312C79.7671 64.312 81.0631 63.968 82.2311 63.28C83.3991 62.576 84.3271 61.64 85.0151 60.472C85.7031 59.304 86.0471 58.016 86.0471 56.608V42.832C86.0471 41.408 85.7031 40.112 85.0151 38.944C84.3271 37.776 83.3991 36.848 82.2311 36.16C81.0631 35.456 79.7671 35.104 78.3431 35.104C76.9191 35.104 75.6231 35.456 74.4551 36.16C73.2871 36.848 72.3591 37.776 71.6711 38.944C70.9831 40.112 70.6391 41.408 70.6391 42.832V56.608C70.6391 58.016 70.9831 59.304 71.6711 60.472C72.3591 61.64 73.2871 62.576 74.4551 63.28C75.6231 63.968 76.9191 64.312 78.3431 64.312Z" fill="white"/>
<path d="M42.5075 89V87.384C42.7635 87.4 42.9795 87.3813 43.1555 87.328C43.3315 87.2693 43.4782 87.16 43.5955 87C43.7182 86.8347 43.8248 86.6027 43.9155 86.304C44.0062 86 44.0942 85.6187 44.1795 85.16C44.3022 84.504 44.4035 83.8213 44.4835 83.112C44.5688 82.3973 44.6408 81.696 44.6995 81.008C44.7582 80.3147 44.8035 79.664 44.8355 79.056C44.8675 78.448 44.8942 77.9227 44.9155 77.48H52.6275V89H50.6995V79.288H46.6995C46.6728 79.6453 46.6408 80.0773 46.6035 80.584C46.5715 81.0853 46.5262 81.6293 46.4675 82.216C46.4142 82.8027 46.3448 83.4107 46.2595 84.04C46.1795 84.6693 46.0808 85.288 45.9635 85.896C45.8568 86.4507 45.7288 86.9493 45.5795 87.392C45.4302 87.8293 45.2302 88.192 44.9795 88.48C44.7342 88.7627 44.4115 88.952 44.0115 89.048C43.6168 89.144 43.1155 89.128 42.5075 89ZM54.87 89V77.48H62.31V79.288H56.798V82.128H61.35V83.936H56.798V87.192H62.31V89H54.87ZM66.9974 89V79.288H63.2694V77.48H72.6534V79.288H68.9254V89H66.9974ZM76.6513 89V77.48H78.5793V82.328H84.0353V77.48H85.9553V89H84.0353V84.136H78.5793V89H76.6513ZM87.3981 89L91.0301 77.48H93.8541L97.4861 89H95.5021L92.2061 78.664H92.6381L89.3821 89H87.3981ZM89.4221 86.504V84.704H95.4701V86.504H89.4221ZM30.8075 109V97.48H35.5675C35.6795 97.48 35.8235 97.4853 35.9995 97.496C36.1755 97.5013 36.3382 97.5173 36.4875 97.544C37.1542 97.6453 37.7035 97.8667 38.1355 98.208C38.5728 98.5493 38.8955 98.9813 39.1035 99.504C39.3168 100.021 39.4235 100.597 39.4235 101.232C39.4235 101.861 39.3168 102.437 39.1035 102.96C38.8902 103.477 38.5648 103.907 38.1275 104.248C37.6955 104.589 37.1488 104.811 36.4875 104.912C36.3382 104.933 36.1728 104.949 35.9915 104.96C35.8155 104.971 35.6742 104.976 35.5675 104.976H32.7355V109H30.8075ZM32.7355 103.176H35.4875C35.5942 103.176 35.7142 103.171 35.8475 103.16C35.9808 103.149 36.1035 103.128 36.2155 103.096C36.5355 103.016 36.7862 102.875 36.9675 102.672C37.1542 102.469 37.2848 102.24 37.3595 101.984C37.4395 101.728 37.4795 101.477 37.4795 101.232C37.4795 100.987 37.4395 100.736 37.3595 100.48C37.2848 100.219 37.1542 99.9867 36.9675 99.784C36.7862 99.5813 36.5355 99.44 36.2155 99.36C36.1035 99.328 35.9808 99.3093 35.8475 99.304C35.7142 99.2933 35.5942 99.288 35.4875 99.288H32.7355V103.176ZM41.0103 109V97.48H42.9383V101.504H45.7703C45.8769 101.504 46.0209 101.509 46.2023 101.52C46.3836 101.525 46.5489 101.541 46.6983 101.568C47.3596 101.669 47.9063 101.891 48.3383 102.232C48.7756 102.573 49.0983 103.005 49.3063 103.528C49.5196 104.045 49.6263 104.619 49.6263 105.248C49.6263 105.883 49.5196 106.461 49.3063 106.984C49.0983 107.501 48.7756 107.931 48.3383 108.272C47.9063 108.613 47.3596 108.835 46.6983 108.936C46.5489 108.957 46.3836 108.973 46.2023 108.984C46.0263 108.995 45.8823 109 45.7703 109H41.0103ZM42.9383 107.192H45.6903C45.8023 107.192 45.9223 107.187 46.0503 107.176C46.1836 107.165 46.3089 107.147 46.4263 107.12C46.7409 107.04 46.9889 106.899 47.1703 106.696C47.3569 106.493 47.4876 106.264 47.5623 106.008C47.6423 105.747 47.6823 105.493 47.6823 105.248C47.6823 105.003 47.6423 104.752 47.5623 104.496C47.4876 104.24 47.3569 104.011 47.1703 103.808C46.9889 103.605 46.7409 103.464 46.4263 103.384C46.3089 103.352 46.1836 103.331 46.0503 103.32C45.9223 103.309 45.8023 103.304 45.6903 103.304H42.9383V107.192ZM50.7783 109V97.48H52.7063V109H50.7783ZM54.9325 109V97.48H56.8605V102.328H62.3165V97.48H64.2365V109H62.3165V104.136H56.8605V109H54.9325ZM66.4794 109V97.48H68.4074V102.824L73.0074 97.48H75.3754L70.4234 103.128L75.7114 109H73.2634L68.4074 103.624V109H66.4794ZM76.8388 109V97.48H84.2788V99.288H78.7668V102.128H83.3188V103.936H78.7668V107.192H84.2788V109H76.8388ZM89.4013 109V97.48H94.1613C94.2733 97.48 94.4173 97.4853 94.5933 97.496C94.7693 97.5013 94.9319 97.5173 95.0813 97.544C95.7479 97.6453 96.2973 97.8667 96.7292 98.208C97.1666 98.5493 97.4893 98.9813 97.6973 99.504C97.9106 100.021 98.0173 100.597 98.0173 101.232C98.0173 101.861 97.9106 102.437 97.6973 102.96C97.4839 103.477 97.1586 103.907 96.7213 104.248C96.2893 104.589 95.7426 104.811 95.0813 104.912C94.9319 104.933 94.7666 104.949 94.5853 104.96C94.4093 104.971 94.2679 104.976 94.1613 104.976H91.3293V109H89.4013ZM91.3293 103.176H94.0813C94.1879 103.176 94.3079 103.171 94.4413 103.16C94.5746 103.149 94.6973 103.128 94.8093 103.096C95.1293 103.016 95.3799 102.875 95.5613 102.672C95.7479 102.469 95.8786 102.24 95.9533 101.984C96.0333 101.728 96.0733 101.477 96.0733 101.232C96.0733 100.987 96.0333 100.736 95.9533 100.48C95.8786 100.219 95.7479 99.9867 95.5613 99.784C95.3799 99.5813 95.1293 99.44 94.8093 99.36C94.6973 99.328 94.5746 99.3093 94.4413 99.304C94.3079 99.2933 94.1879 99.288 94.0813 99.288H91.3293V103.176ZM103.444 109V107.36C102.852 107.461 102.287 107.437 101.748 107.288C101.215 107.139 100.74 106.875 100.324 106.496C99.908 106.112 99.58 105.621 99.34 105.024C99.1 104.421 98.98 103.717 98.98 102.912C98.98 102.107 99.1 101.4 99.34 100.792C99.58 100.184 99.908 99.6853 100.324 99.296C100.74 98.9067 101.215 98.6347 101.748 98.48C102.287 98.3253 102.852 98.2987 103.444 98.4V97.48H105.356V98.4C105.948 98.2987 106.513 98.3253 107.052 98.48C107.591 98.6347 108.068 98.9067 108.484 99.296C108.9 99.6853 109.228 100.184 109.468 100.792C109.713 101.4 109.836 102.107 109.836 102.912C109.836 103.717 109.713 104.421 109.468 105.024C109.228 105.621 108.9 106.112 108.484 106.496C108.068 106.875 107.591 107.139 107.052 107.288C106.513 107.437 105.948 107.461 105.356 107.36V109H103.444ZM103.444 105.592V100.136C102.98 100.061 102.585 100.093 102.26 100.232C101.94 100.365 101.681 100.571 101.484 100.848C101.292 101.12 101.153 101.437 101.068 101.8C100.983 102.163 100.94 102.533 100.94 102.912C100.94 103.291 100.983 103.656 101.068 104.008C101.153 104.36 101.292 104.669 101.484 104.936C101.681 105.197 101.94 105.389 102.26 105.512C102.585 105.635 102.98 105.661 103.444 105.592ZM105.356 105.592C105.825 105.661 106.22 105.635 106.54 105.512C106.86 105.384 107.119 105.189 107.316 104.928C107.513 104.667 107.655 104.365 107.74 104.024C107.831 103.683 107.876 103.331 107.876 102.968C107.876 102.605 107.831 102.243 107.74 101.88C107.655 101.512 107.513 101.187 107.316 100.904C107.119 100.616 106.86 100.397 106.54 100.248C106.22 100.099 105.825 100.061 105.356 100.136V105.592Z" fill="white"/>
</svg>
